<?xml version="1.0" encoding="UTF-8"?>
<svg id="fin_vertical" data-name="fin vertical" xmlns="http://www.w3.org/2000/svg" xmlns:xlink="http://www.w3.org/1999/xlink" viewBox="0 0 1280 959">
  <defs>
    <style>
      .cls-1 {
        fill: #07b0f2;
      }

      .cls-1, .cls-2, .cls-3, .cls-4 {
        stroke-width: 0px;
      }

      .cls-2 {
        fill: url(#Degradado_sin_nombre_71);
      }

      .cls-3 {
        fill: url(#Degradado_sin_nombre_59);
      }

      .cls-4 {
        fill: #068bbf;
      }
    </style>
    <linearGradient id="Degradado_sin_nombre_59" data-name="Degradado sin nombre 59" x1="315.17" y1="355.13" x2="952.18" y2="355.13" gradientUnits="userSpaceOnUse">
      <stop offset="0" stop-color="#79d0f2"/>
      <stop offset=".4" stop-color="#068bbf"/>
      <stop offset="1" stop-color="#04668c"/>
    </linearGradient>
    <linearGradient id="Degradado_sin_nombre_71" data-name="Degradado sin nombre 71" x1="714.69" y1="710.25" x2="714.69" y2="0" gradientUnits="userSpaceOnUse">
      <stop offset="0" stop-color="#79d0f2"/>
      <stop offset=".05" stop-color="#6ecdf2"/>
      <stop offset=".24" stop-color="#49c2f2"/>
      <stop offset=".44" stop-color="#2cbaf2"/>
      <stop offset=".63" stop-color="#17b4f2"/>
      <stop offset=".82" stop-color="#0bb1f2"/>
      <stop offset="1" stop-color="#07b0f2"/>
    </linearGradient>
  </defs>
  <g>
    <path class="cls-3" d="m597.06,0h-86.56v217.52h85.45c75.39,0,136.5,61.11,136.5,136.5h0c0,75.39-61.11,136.5-136.5,136.5h-280.77v219.73h281.88c196.13,0,355.13-159,355.13-355.13h0C952.18,159,793.19,0,597.06,0Z"/>
    <path class="cls-2" d="m952.18,355.13h0C952.18,159,793.19,0,597.06,0h-86.56v217.52h85.45c75.39,0,136.5,61.11,136.5,136.5h0c0,5.87-.41,11.65-1.13,17.33.01,0,.04.02.04.02,0,0-1.13,123.59-63.27,219.03-62.15,95.44-190.88,119.86-190.88,119.86h119.86c196.13,0,355.13-159,355.13-355.13Z"/>
    <rect class="cls-1" x="417.27" width="71.03" height="37.73"/>
    <rect class="cls-1" x="315.17" width="22.2" height="37.73"/>
    <rect class="cls-1" x="357.35" width="37.73" height="37.73"/>
    <rect class="cls-1" x="417.27" y="59.93" width="71.03" height="37.73"/>
    <rect class="cls-1" x="315.17" y="59.93" width="22.2" height="37.73"/>
    <rect class="cls-1" x="357.35" y="59.93" width="37.73" height="37.73"/>
    <rect class="cls-1" x="417.27" y="119.86" width="71.03" height="37.73"/>
    <rect class="cls-1" x="315.17" y="119.86" width="22.2" height="37.73"/>
    <rect class="cls-1" x="357.35" y="119.86" width="37.73" height="37.73"/>
    <rect class="cls-1" x="417.27" y="179.78" width="71.03" height="37.73"/>
    <rect class="cls-1" x="315.17" y="179.78" width="22.2" height="37.73"/>
    <rect class="cls-1" x="357.35" y="179.78" width="37.73" height="37.73"/>
  </g>
  <g>
    <path class="cls-4" d="m122.07,892.26c-.61-14.65-4.75-26.28-10.43-35.44-12.21-19.7-34.24-31.15-57.42-31.15H0v130.95h58.18c15.68,0,31.07-5.15,43.08-15.24,11.57-9.72,21.82-25.16,20.82-49.13Zm-41.32,25.03c-5.89,5.47-13.44,8.26-21.13,8.26h-28.54v-71.03h26.6c11.37,0,22.18,6.21,28.17,16.89,2.79,4.97,4.82,11.27,5.12,19.22.49,13-4.54,21.37-10.22,26.65Z"/>
    <path class="cls-4" d="m233.11,825.67h-33.13l-48.1,130.95h34.47l8.97-24.41h44.39l8.1,24.41h33.4l-48.1-130.95Zm-28.91,77.68l12.35-33.11,12.07,33.11h-24.41Z"/>
    <path class="cls-4" d="m497.24,825.67h-33.13l-48.1,130.95h34.47l8.97-24.41h44.39l8.1,24.41h33.4l-48.1-130.95Zm-28.91,77.68l12.35-33.11,12.07,33.11h-24.41Z"/>
    <path class="cls-4" d="m1231.9,825.67h-33.13l-48.1,130.95h34.47l8.97-24.41h44.39l8.1,24.41h33.4l-48.1-130.95Zm-28.91,77.68l12.35-33.11,12.07,33.11h-24.41Z"/>
    <polygon class="cls-4" points="393.67 825.67 297.42 825.67 297.42 854.52 328.49 854.52 328.49 956.62 359.55 956.62 359.55 854.52 393.67 854.52 393.67 825.67"/>
    <path class="cls-4" d="m672.5,825.67h31.1v86.58c0,4.62,2.07,9.1,5.85,11.75,2.99,2.09,7.46,3.77,14.12,3.77,6.04,0,10.29-1.38,13.26-3.2,4.26-2.61,6.72-7.37,6.72-12.37v-86.53h31.07v89.34c0,7.13-1.74,14.21-5.38,20.34-6.26,10.53-19.31,21.27-45.67,21.27s-39.42-10.74-45.68-21.27c-3.65-6.14-5.39-13.22-5.39-20.36v-89.33Z"/>
    <path class="cls-4" d="m834.46,956.62h28.93v-73.24l34.22,51.31c.62.93,1.99.93,2.6,0l33.86-51.3v73.24h31.23v-130.95h-32.76l-31.38,53.43c-.59,1-2.03,1.03-2.66.06l-34.54-53.49h-29.41l-.09,130.95Z"/>
    <path class="cls-4" d="m1085.36,865.62c2.22,0,26.63-17.76,26.63-17.76,0,0-11.1-28.85-48.83-26.63-37.73,2.22-42.17,28.85-42.17,37.73s6.37,32.11,28.85,37.73c14.79,3.7,25.71,8.93,31.07,13.32,1.51,1.23,1.77,3.36,1.45,5.66-.82,5.79-6.05,9.95-11.89,9.62-4.79-.27-10.55-.82-13.97-1.96-10.18-3.39-15.54-13.32-15.54-13.32l-24.67,17.95s13.57,30.88,51.31,30.88c16.77,0,30.12-8.63,37.73-17.76,10.78-12.92,11.34-30.25,2.22-44.39-3.77-5.84-9.93-12.34-15.54-15.54-15.54-8.88-31.07-8.88-35.51-13.32-1.34-1.34-1.76-4.53-1.87-7.01-.23-5.12,3.27-9.78,8.31-10.7.07-.01.15-.03.22-.04,13.32-2.22,22.2,15.54,22.2,15.54Z"/>
  </g>
</svg>